<svg xmlns="http://www.w3.org/2000/svg" width="474.408" height="291.495" viewBox="0 0 474.408 291.495">
  <g id="Grupo_1565" data-name="Grupo 1565" transform="translate(-2039.779 -5.252)">
    <path id="Trazado_2117" data-name="Trazado 2117" d="M2448.717,179.675c-6.4-18.225-16.487-23.771-26.078-35.461-11.715-14.278-19.616-24.657-16.574-43.021,4.97-30.008,7.1-104.848-70.725-95.066-27.893,3.507-49.936,25.328-65.971,47.109-13.645,18.534-38.189,20.168-57.945,24.489-24.274,5.31-49,13.329-71.458,25.08-46.253,24.2-60.067,58.99-58.181,103.5.57,13.448,2.435,34.63,24.688,59.417,30.036,33.456,73.682,37.935,126.214,22.571,12.025-3.516,23.391-9.032,35.22-13.185a163.25,163.25,0,0,1,38.01-8.425c30.171-2.978,61.447,2.407,90.39-6.788a95.11,95.11,0,0,0,40.428-25.6C2450.559,219.52,2455.476,198.912,2448.717,179.675Z" fill="#8fcec4" opacity="0.46"/>
    <g id="Grupo_1564" data-name="Grupo 1564">
      <g id="Grupo_1563" data-name="Grupo 1563">
        <path id="Trazado_2118" data-name="Trazado 2118" d="M2417.053,134.157c6.852,1.411,26.264,15.355,38.485,26.326,12.245,10.944,37.755,28.645,58.649,22.134-5.416,13.021-29.518,14.078-41.739,29.433-12.22,15.38-38.483,58.589-55.029,58.589H2130.765c-11.869,0-19.423-6.984-41.363-29.336s-33.091-50.317-49.623-54.97c6.473-10.7,41-9.779,55.746-29.338s28.413-22.838,35.24-22.838Z" fill="#d9b279"/>
        <path id="Trazado_2119" data-name="Trazado 2119" d="M2089.4,241.3c21.94,22.352,29.494,29.336,41.363,29.336h286.654c16.546,0,42.809-43.209,55.029-58.589,12.221-15.355,36.323-16.412,41.739-29.433-12.585,7.906-35.98,11.722-79.493,6.558s-95.679,4.155-156.1,8.808-137.4,11.176-168.333,6.05-56.1-24.686-70.48-17.7C2056.311,190.986,2067.476,218.938,2089.4,241.3Z" opacity="0.1"/>
        <path id="Trazado_2120" data-name="Trazado 2120" d="M2423.2,204.033c1.993,3,1.652,15.063.218,35.714s-4.665,22.827-17.127,23.6c-12.489.778-1.458-6.984,4.786-11.807,6.218-4.812,11.029-34.925,10.908-38.826C2421.864,208.843,2419.458,198.505,2423.2,204.033Z" fill="#fff" opacity="0.2"/>
        <path id="Trazado_2121" data-name="Trazado 2121" d="M2417.053,134.157H2130.765c-6.827,0-20.506,3.27-35.24,22.838-13.351,17.7-42.907,18.612-53.207,26.581,14.042-5.176,35.982,5.028,43.841-2.005,9-8.017,21.586-19.922,17.274-5.017s-1.943,25.62,3.315,11.468,10-38.96,33.02-38.96,258.943-3.716,267.2,0c8.285,3.731,11.515,36.8,14.406,33.555,2.868-3.27.365-31.682,3.961-30.722s14.383,27.452,25.9,35.374c26.141,1.919,41.4.352,53.036-3.317-18.514-.158-38.387-14.2-48.737-23.469C2443.317,149.512,2423.905,135.568,2417.053,134.157Z" fill="#fff" opacity="0.2"/>
      </g>
      <path id="Trazado_2122" data-name="Trazado 2122" d="M2434.694,189.175c-43.514-5.174-95.679,4.155-156.1,8.808s-137.4,11.176-168.333,6.05-56.1-24.686-70.48-17.7c10.9-3.875,32.483,12.257,42.553,16.071s23.25,11.71,26.6,24.139,15.83,34.475,9.84,34.17-14.856-11.176-33.65-23.99c1.386,1.529,2.806,3.073,4.277,4.58,21.94,22.352,29.494,29.336,41.363,29.336h286.654c14.141,0,35.374-31.56,48.906-50.328-12.536,10.969-35.811,41.327-42.783,44.448-7.679,3.426-99.517,1.228-128.525-.011s-137.647,3.412-145.555-6.852-10.546-27,0-36.529,33.089-4.433,88.24-9.415,131.418-18.33,158.02-18.014c26.628.327,31.658,8.078,31.658,21.757,0,13.641-6.464,48.117-.729,32.275,5.782-15.839,10.568-49.987,33.091-50.619,22.546-.607,47.959-5.284,54.445-14.734C2501.6,190.523,2478.207,194.339,2434.694,189.175Z" opacity="0.1"/>
      <path id="Trazado_2123" data-name="Trazado 2123" d="M2404.348,134.157c-9.816,4.52-15.112,5.14-15.112,39.907,0,0-81.27-1.13-134.5,5.029V144.642c0-5.82,8.759-10.485,8.759-10.485Z" fill="#fff" opacity="0.2"/>
      <path id="Trazado_2124" data-name="Trazado 2124" d="M2397.617,134.157h-17.663c-1.992,1.531-4.2,3.451-5.151,5.14-1.968,3.486-3.06,19.327-3.06,19.327h-55.735s-2.162-14.214.7-17.7c1.6-1.955,5.929-4.7,9.4-6.767h-5.953c-3.11,1.848-6.487,4.313-6.852,6.536-.729,4.179-.388,11.4-.194,23.981,18-.923,71.26-.923,71.26-.923C2385.663,145.808,2386.126,139.758,2397.617,134.157Z" opacity="0.3"/>
      <path id="Trazado_2125" data-name="Trazado 2125" d="M2389.236,174.064s-76.193-1.081-129.338,4.458l2.757,8.272c11.868-5.575,41.691-9,60.156-10.082,18.489-1.081,67.76-.789,67.76-.789-.121-2.175-.606-19.862,1.8-27.977s6.341-9.743,11.978-13.789C2394.532,138.677,2389.236,139.3,2389.236,174.064Z" opacity="0.1"/>
      <path id="Trazado_2126" data-name="Trazado 2126" d="M2389.236,174.064c0-27.917,3.4-33.808,9.839-37.379,0-.012-4.931,1.313-7.824,7.957-2.866,6.645-4.13,23.761-4.955,25.74-.8,1.968-54.106.232-70.045.464-15.888.229-52.479,1.87-56.353-.816s-4.5-20.968-4.313-24.222,7.179-8.042,10.422-8.613,112.757-.522,118-.522c2.381,0,6.391-1.19,10.035-2.516H2263.493s-8.759,4.665-8.759,10.485v34.451C2307.966,172.934,2389.236,174.064,2389.236,174.064Z" fill="#fff" opacity="0.2"/>
    </g>
  </g>
</svg>
