<svg xmlns="http://www.w3.org/2000/svg" width="899.059" height="328.929" viewBox="0 0 899.059 328.929">
  <g id="Grupo_2708" data-name="Grupo 2708" transform="translate(-3.499 -10.866)">
    <text id="Agrupar_los_productos_en_una_sola_unidad_de_carga." data-name="Agrupar los productos en una sola unidad de carga." transform="translate(34.863 33.304)" fill="#142756" font-size="16" font-family="OpenSans, Open Sans" letter-spacing="0.025em"><tspan x="0" y="17">Agrupar los productos en </tspan><tspan x="0" y="36.2">una sola unidad de carga.</tspan></text>
    <text id="Proteger_la_carga_y_preservar_la_calidad_de_los_productos." data-name="Proteger la carga y preservar la calidad de los productos." transform="translate(34.863 259.124)" fill="#142756" font-size="16" font-family="OpenSans, Open Sans" letter-spacing="0.025em"><tspan x="0" y="17">Proteger la carga y </tspan><tspan x="0" y="36.2">preservar la calidad de los </tspan><tspan x="0" y="55.4">productos.</tspan></text>
    <text id="Facilitar_el_traslado_de_la_carga_y_permitir_su_transporte." data-name="Facilitar el traslado de la carga y permitir su transporte." transform="translate(682.863 23.19)" fill="#142756" font-size="16" font-family="OpenSans, Open Sans" letter-spacing="0.025em"><tspan x="0" y="17">Facilitar el traslado de la </tspan><tspan x="0" y="36.2">carga y permitir su </tspan><tspan x="0" y="55.4">transporte.</tspan></text>
    <text id="Reducir_superficies_de_almacenamiento." data-name="Reducir superficies de almacenamiento." transform="translate(682.863 270.002)" fill="#142756" font-size="16" font-family="OpenSans, Open Sans" letter-spacing="0.025em"><tspan x="0" y="17">Reducir superficies de </tspan><tspan x="0" y="36.2">almacenamiento.</tspan></text>
    <text id="Facilitar_las_labores_operaciones_de_manipulación_y_labores_de_logística." data-name="Facilitar las labores operaciones de manipulación y labores de logística." transform="translate(713.558 130.779)" fill="#142756" font-size="16" font-family="OpenSans, Open Sans" letter-spacing="0.025em"><tspan x="0" y="17">Facilitar las labores </tspan><tspan x="0" y="36.2">operaciones de </tspan><tspan x="0" y="55.4">manipulación y labores </tspan><tspan x="0" y="74.6">de logística.</tspan></text>
    <text id="Ajustar_las_dimensiones_y_peso_a_la_unidad_de_carga_definida_en_cada_mercado." data-name="Ajustar las dimensiones y peso a la unidad de carga definida en cada mercado." transform="translate(30.884 131.876)" fill="#142756" font-size="16" font-family="OpenSans, Open Sans" letter-spacing="0.025em"><tspan x="0" y="17">Ajustar las dimensiones </tspan><tspan x="0" y="36.2">y peso a la unidad de </tspan><tspan x="0" y="55.4">carga definida en cada </tspan><tspan x="0" y="74.6">mercado.</tspan></text>
    <g id="Grupo_2661" data-name="Grupo 2661">
      <g id="Grupo_2650" data-name="Grupo 2650">
        <g id="Grupo_2649" data-name="Grupo 2649">
          <path id="Trazado_5124" data-name="Trazado 5124" d="M465.344,309.473a1.5,1.5,0,1,1,1.55,1.441h-.05A1.507,1.507,0,0,1,465.344,309.473Zm-8.39,1.441a1.527,1.527,0,1,1,.05,0Zm18.21-2.031a1.5,1.5,0,1,1,1.651,1.331c-.051,0-.1.009-.16.009A1.5,1.5,0,0,1,475.164,308.883ZM447.035,310.2a1.484,1.484,0,1,1,.159.01C447.144,310.214,447.084,310.2,447.035,310.2Zm37.879-2.62a1.5,1.5,0,1,1,1.75,1.21,1.284,1.284,0,0,1-.27.019A1.5,1.5,0,0,1,484.914,307.584Zm-47.73,1.189a1.515,1.515,0,1,1,.27.021A2.459,2.459,0,0,1,437.184,308.773Zm57.36-3.189a1.5,1.5,0,1,1,1.83,1.08,1.7,1.7,0,0,1-.379.05A1.5,1.5,0,0,1,494.544,305.584Zm-67.08,1.049a1.494,1.494,0,1,1,.381.05A1.536,1.536,0,0,1,427.464,306.633ZM504,302.9a1.5,1.5,0,1,1,1.9.94,1.617,1.617,0,0,1-.481.081A1.5,1.5,0,0,1,504,302.9Zm-86.08.891a1.5,1.5,0,1,1,.48.08A1.371,1.371,0,0,1,417.924,303.794Zm95.311-4.271a1.5,1.5,0,1,1,1.389.92A1.521,1.521,0,0,1,513.235,299.523Zm-104.621.75a1.532,1.532,0,1,1,.58.11A1.508,1.508,0,0,1,408.614,300.273Zm113.6-4.779a1.477,1.477,0,1,1,1.33.819A1.494,1.494,0,0,1,522.214,295.494Zm-122.619.579a1.5,1.5,0,0,1,1.359-2.67,1.5,1.5,0,0,1-.68,2.841A1.4,1.4,0,0,1,399.6,296.073Zm131.27-5.26a1.5,1.5,0,1,1,2.059.51,1.538,1.538,0,0,1-.78.21A1.483,1.483,0,0,1,530.865,290.813Zm-139.961.431a1.515,1.515,0,1,1,.77.21A1.549,1.549,0,0,1,390.9,291.244Zm148.251-5.721a1.511,1.511,0,0,1,.359-2.09,1.5,1.5,0,0,1,1.731,2.45,1.511,1.511,0,0,1-2.09-.36Zm-156.571.271a1.513,1.513,0,1,1,.86.269A1.507,1.507,0,0,1,382.584,285.794Zm164.46-6.141a1.5,1.5,0,1,1,2.321-1.909,1.5,1.5,0,0,1-.21,2.119v-.01a1.457,1.457,0,0,1-.951.34A1.5,1.5,0,0,1,547.044,279.653Zm-172.37.1a1.5,1.5,0,1,1,.95.339A1.484,1.484,0,0,1,374.674,279.754Zm179.821-6.531a1.5,1.5,0,1,1,2.12.06v-.01a1.481,1.481,0,0,1-1.031.42A1.5,1.5,0,0,1,554.495,273.223Zm-187.27-.059a1.512,1.512,0,1,1,1.029.409A1.469,1.469,0,0,1,367.225,273.164Zm194.239-6.891a1.491,1.491,0,0,1-.09-2.12v.011a1.5,1.5,0,1,1,2.21,2.019,1.514,1.514,0,0,1-1.11.491A1.471,1.471,0,0,1,561.464,266.273Zm-201.2-.21a1.5,1.5,0,1,1,2.119.09,1.466,1.466,0,0,1-1.01.4A1.5,1.5,0,0,1,360.265,266.063Z" fill="#7f7f7f"/>
        </g>
      </g>
      <g id="Grupo_2652" data-name="Grupo 2652">
        <g id="Grupo_2651" data-name="Grupo 2651">
          <path id="Trazado_5125" data-name="Trazado 5125" d="M584.174,233.383a1.488,1.488,0,1,1,.641.15A1.493,1.493,0,0,1,584.174,233.383Zm4.111-9.22a1.5,1.5,0,1,1,1.95-.85h-.011a1.5,1.5,0,0,1-1.4.95A1.446,1.446,0,0,1,588.285,224.163Zm3.419-9.5a1.5,1.5,0,1,1,.871-2.87,1.5,1.5,0,0,1-.441,2.941A1.271,1.271,0,0,1,591.7,214.663Zm2.69-9.719a1.5,1.5,0,1,1,1.79-1.141,1.484,1.484,0,0,1-1.46,1.17A1.848,1.848,0,0,1,594.394,204.944Zm1.96-9.9a1.543,1.543,0,1,1,.221.01A1.629,1.629,0,0,1,596.354,195.043Z" fill="#7f7f7f"/>
        </g>
      </g>
      <g id="Grupo_2654" data-name="Grupo 2654">
        <g id="Grupo_2653" data-name="Grupo 2653">
          <path id="Trazado_5126" data-name="Trazado 5126" d="M595.084,153.513a1.5,1.5,0,1,1,1.71,1.27,1.689,1.689,0,0,1-.219.01A1.5,1.5,0,0,1,595.084,153.513Zm-1.83-9.81h.01a1.486,1.486,0,0,1,1.13-1.79,1.5,1.5,0,0,1,.66,2.93,1.833,1.833,0,0,1-.33.03A1.506,1.506,0,0,1,593.254,143.7Zm-2.55-9.64a1.5,1.5,0,0,1,2.871-.88,1.518,1.518,0,0,1-1,1.88,1.674,1.674,0,0,1-.441.06A1.484,1.484,0,0,1,590.7,134.063Zm-3.27-9.43a1.476,1.476,0,1,1,1.4.96A1.5,1.5,0,0,1,587.434,124.633Zm-3.97-9.16h.01a1.5,1.5,0,1,1,1.99.71,1.431,1.431,0,0,1-.639.15A1.515,1.515,0,0,1,583.464,115.473Z" fill="#7f7f7f"/>
        </g>
      </g>
      <g id="Grupo_2656" data-name="Grupo 2656">
        <g id="Grupo_2655" data-name="Grupo 2655">
          <path id="Trazado_5127" data-name="Trazado 5127" d="M561.344,82.674a1.5,1.5,0,1,1,2.21-2.021,1.487,1.487,0,0,1-.09,2.11,1.47,1.47,0,0,1-1.01.4A1.5,1.5,0,0,1,561.344,82.674ZM360.6,82.663a1.5,1.5,0,1,1,2.119-.1,1.5,1.5,0,0,1-2.119.1Zm193.94-6.92a1.5,1.5,0,0,1,2.069-2.18h-.01a1.5,1.5,0,0,1-1.029,2.59A1.513,1.513,0,0,1,554.535,75.743ZM367.4,75.583a1.5,1.5,0,1,1,2.12.06,1.463,1.463,0,0,1-1.029.41A1.494,1.494,0,0,1,367.4,75.583Zm179.85-6.27a1.486,1.486,0,0,1-.21-2.11,1.5,1.5,0,0,1,2.321,1.9,1.5,1.5,0,0,1-2.111.21Zm-172.55-.3a1.5,1.5,0,1,1,2.11.21,1.5,1.5,0,0,1-2.11-.21Zm164.821-5.58a1.511,1.511,0,1,1,.859.27A1.5,1.5,0,0,1,539.525,63.433Zm-157.071-.44a1.5,1.5,0,1,1,2.1.36,1.566,1.566,0,0,1-.871.27A1.521,1.521,0,0,1,382.454,62.993Zm148.94-4.88a1.5,1.5,0,1,1,1.551-2.57h-.011a1.5,1.5,0,0,1-.77,2.79A1.43,1.43,0,0,1,531.394,58.113Zm-140.77-.58a1.5,1.5,0,1,1,2.06.51,1.446,1.446,0,0,1-.77.22A1.5,1.5,0,0,1,390.624,57.533Zm132.27-4.13a1.51,1.51,0,1,1,.681.16A1.509,1.509,0,0,1,522.894,53.4Zm-123.73-.72a1.508,1.508,0,1,1,1.34.821A1.5,1.5,0,0,1,399.164,52.683Zm114.92-3.37a1.5,1.5,0,0,1,1.161-2.76,1.5,1.5,0,1,1-1.161,2.76Zm-106.06-.849a1.5,1.5,0,1,1,1.971.8,1.5,1.5,0,0,1-1.971-.8Zm96.971-2.581a1.528,1.528,0,1,1,.479.07A1.593,1.593,0,0,1,504.995,45.883Zm-87.821-.99a1.5,1.5,0,1,1,1.9.95,1.622,1.622,0,0,1-.48.081A1.5,1.5,0,0,1,417.174,44.893Zm78.51-1.78a1.5,1.5,0,0,1,.75-2.91h-.01a1.5,1.5,0,0,1-.37,2.96A1.568,1.568,0,0,1,495.684,43.113ZM426.555,42a1.5,1.5,0,0,1,1.079-1.83v.009a1.5,1.5,0,1,1,.75,2.9,1.652,1.652,0,0,1-.38.05A1.492,1.492,0,0,1,426.555,42Zm59.629-.971v-.009a1.5,1.5,0,1,1,1.75-1.2,1.509,1.509,0,0,1-1.48,1.23A2.489,2.489,0,0,1,486.184,41.033Zm-50.07-1.23a1.5,1.5,0,1,1,1.75,1.21,1.224,1.224,0,0,1-.269.02A1.509,1.509,0,0,1,436.114,39.8Zm40.451-.16a1.5,1.5,0,0,1,.329-2.99h-.01a1.5,1.5,0,0,1-.149,2.99Zm-30.74-1.35a1.5,1.5,0,1,1,1.65,1.34c-.051,0-.111.01-.161.01A1.5,1.5,0,0,1,445.825,38.293Zm21.049.651a1.533,1.533,0,1,1,.06,0Zm-11.26-1.451a1.5,1.5,0,1,1,1.55,1.451h-.05A1.5,1.5,0,0,1,455.614,37.493Z" fill="#7f7f7f"/>
        </g>
      </g>
      <g id="Grupo_2658" data-name="Grupo 2658">
        <g id="Grupo_2657" data-name="Grupo 2657">
          <path id="Trazado_5128" data-name="Trazado 5128" d="M327.194,154.593a1.47,1.47,0,1,1,.22.02A.828.828,0,0,1,327.194,154.593Zm1.75-9.94a1.5,1.5,0,1,1,1.8-1.129,1.508,1.508,0,0,1-1.471,1.17A1.249,1.249,0,0,1,328.944,144.653Zm2.49-9.78a1.5,1.5,0,0,1,.88-2.869,1.5,1.5,0,0,1-.44,2.94A1.366,1.366,0,0,1,331.434,134.873Zm3.22-9.57a1.5,1.5,0,1,1,1.941-.85,1.513,1.513,0,0,1-1.4.96A1.493,1.493,0,0,1,334.654,125.3Zm3.921-9.3a1.5,1.5,0,1,1,.639.149A1.5,1.5,0,0,1,338.575,116Z" fill="#7f7f7f"/>
        </g>
      </g>
      <g id="Grupo_2660" data-name="Grupo 2660">
        <g id="Grupo_2659" data-name="Grupo 2659">
          <path id="Trazado_5129" data-name="Trazado 5129" d="M337.7,232.5a1.487,1.487,0,0,1,.71-1.991,1.5,1.5,0,1,1-.71,1.991Zm-4.04-9.371a1.5,1.5,0,1,1,1.94.86,1.5,1.5,0,0,1-1.94-.86Zm-3.33-9.649a1.495,1.495,0,1,1,1.87,1,1.412,1.412,0,0,1-.439.069A1.494,1.494,0,0,1,330.334,213.484Zm-2.609-9.871h.009a1.5,1.5,0,1,1,1.79,1.141,1.845,1.845,0,0,1-.33.039A1.512,1.512,0,0,1,327.725,203.613Zm-1.851-10.03a1.494,1.494,0,0,1,1.26-1.7,1.5,1.5,0,1,1,.441,2.96.831.831,0,0,1-.221.02A1.494,1.494,0,0,1,325.874,193.583Z" fill="#7f7f7f"/>
        </g>
      </g>
    </g>
    <g id="Grupo_2663" data-name="Grupo 2663">
      <path id="Trazado_5130" data-name="Trazado 5130" d="M628.84,167.932l-16.384,6.863,16.836,7.053a44.239,44.239,0,0,0,40.228,35.678V129.334A44.222,44.222,0,0,0,628.84,167.932Z" fill="#dca038"/>
      <g id="Grupo_2662" data-name="Grupo 2662">
        <path id="Trazado_5131" data-name="Trazado 5131" d="M855.993,218.154H675.405v-.627h.5v-.373H855.993c23.639,0,42.87-19.615,42.87-43.724s-19.231-43.724-42.87-43.724H675.905v-.372h-.5v-.628H855.993c24.19,0,43.87,20.063,43.87,44.724S880.183,218.154,855.993,218.154Z" fill="#dca038"/>
      </g>
    </g>
    <g id="Grupo_2665" data-name="Grupo 2665">
      <g id="Grupo_2664" data-name="Grupo 2664">
        <path id="Trazado_5132" data-name="Trazado 5132" d="M848.035,100.308H639.877v-.99H848.035c23.642,0,42.875-19.617,42.875-43.728s-19.233-43.729-42.875-43.729H639.877v-.99H848.035c24.188,0,43.865,20.06,43.865,44.719S872.223,100.308,848.035,100.308Z" fill="#9e8d85"/>
      </g>
      <path id="Trazado_5133" data-name="Trazado 5133" d="M611.955,18.927a44.222,44.222,0,0,0-14.716,56.636l-9.745,14.853,17.915-3.57A44.2,44.2,0,0,0,633.492,99.7h0V11.474A44.021,44.021,0,0,0,611.955,18.927Z" fill="#9e8d85"/>
    </g>
    <g id="Grupo_2667" data-name="Grupo 2667">
      <g id="Grupo_2666" data-name="Grupo 2666">
        <path id="Trazado_5134" data-name="Trazado 5134" d="M853.049,335.994H639.377v-.626h.5v-.374H853.049c23.639,0,42.87-19.614,42.87-43.724s-19.231-43.723-42.87-43.723H639.877v-.379h-.5v-.621H853.049c24.191,0,43.87,20.062,43.87,44.723S877.24,335.994,853.049,335.994Z" fill="#efca8e"/>
      </g>
      <path id="Trazado_5135" data-name="Trazado 5135" d="M603.382,262.178l-17.415-3.471,10.018,15.269a44.21,44.21,0,0,0,37.508,61.4v-88.2A44.171,44.171,0,0,0,603.382,262.178Z" fill="#efca8e"/>
    </g>
    <g id="Grupo_2669" data-name="Grupo 2669">
      <g id="Grupo_2668" data-name="Grupo 2668">
        <path id="Trazado_5136" data-name="Trazado 5136" d="M248.554,218.154H50.779c-24.19,0-43.87-20.063-43.87-44.724s19.68-44.724,43.87-44.724H248.554v.628h-.5v.372H50.779c-23.638,0-42.87,19.614-42.87,43.724s19.232,43.724,42.87,43.724H248.054v.373h.5Z" fill="#aecc48"/>
      </g>
      <path id="Trazado_5137" data-name="Trazado 5137" d="M311.5,174.795l-16.384-6.863a44.222,44.222,0,0,0-40.68-38.6v88.192a44.239,44.239,0,0,0,40.228-35.678Z" fill="#aecc48"/>
    </g>
    <g id="Grupo_2671" data-name="Grupo 2671">
      <g id="Grupo_2670" data-name="Grupo 2670">
        <path id="Trazado_5138" data-name="Trazado 5138" d="M205.269,100.313H47.368C23.179,100.313,3.5,80.25,3.5,55.59s19.68-44.724,43.869-44.724h243.1l-85.2.626h-.5v.374H47.368C23.73,11.866,4.5,31.48,4.5,55.59S23.73,99.313,47.368,99.313h157.4v.38h85.7Z" fill="#6ababe"/>
      </g>
      <path id="Trazado_5139" data-name="Trazado 5139" d="M336.465,90.416,326.72,75.563a44.207,44.207,0,0,0-36.254-64.076v88.2a44.211,44.211,0,0,0,28.083-12.841Z" fill="#6ababe"/>
    </g>
    <g id="Grupo_2673" data-name="Grupo 2673">
      <g id="Grupo_2672" data-name="Grupo 2672">
        <path id="Trazado_5140" data-name="Trazado 5140" d="M284.581,335.994H55.326c-24.19,0-43.869-20.063-43.869-44.724s19.679-44.723,43.869-44.723H284.581v.621h-.5v.379H55.326c-23.638,0-42.869,19.614-42.869,43.723s19.231,43.724,42.869,43.724H284.081v.374h.5Z" fill="#79b2e2"/>
      </g>
      <path id="Trazado_5141" data-name="Trazado 5141" d="M337.992,258.707l-17.415,3.471a44.172,44.172,0,0,0-30.111-15.005v88.2a44.211,44.211,0,0,0,37.508-61.4Z" fill="#79b2e2"/>
    </g>
    <g id="Grupo_2676" data-name="Grupo 2676">
      <g id="Grupo_2674" data-name="Grupo 2674">
        <path id="Trazado_5142" data-name="Trazado 5142" d="M578.4,251.959a4.359,4.359,0,1,1-1.176-6.052A4.361,4.361,0,0,1,578.4,251.959Z" fill="#d8615b"/>
      </g>
      <g id="Grupo_2675" data-name="Grupo 2675">
        <path id="Trazado_5143" data-name="Trazado 5143" d="M574.773,260.608a11.087,11.087,0,1,1,9.211-4.885A11.032,11.032,0,0,1,574.773,260.608Zm.035-20.18a9.228,9.228,0,0,0-1.753.169,9.05,9.05,0,1,0,1.753-.169Z" fill="#d8615b"/>
      </g>
    </g>
    <g id="Grupo_2679" data-name="Grupo 2679">
      <g id="Grupo_2677" data-name="Grupo 2677">
        <circle id="Elipse_569" data-name="Elipse 569" cx="4.359" cy="4.359" r="4.359" transform="translate(593.693 169.071)" fill="#dca038"/>
      </g>
      <g id="Grupo_2678" data-name="Grupo 2678">
        <path id="Trazado_5144" data-name="Trazado 5144" d="M598.052,184.52a11.09,11.09,0,1,1,11.091-11.09A11.1,11.1,0,0,1,598.052,184.52Zm0-20.18a9.09,9.09,0,1,0,9.091,9.09A9.1,9.1,0,0,0,598.052,164.34Z" fill="#dca038"/>
      </g>
    </g>
    <g id="Grupo_2682" data-name="Grupo 2682">
      <g id="Grupo_2680" data-name="Grupo 2680">
        <path id="Trazado_5145" data-name="Trazado 5145" d="M578.4,94.9a4.359,4.359,0,1,1-6.052-1.176A4.361,4.361,0,0,1,578.4,94.9Z" fill="#7f497e"/>
      </g>
      <g id="Grupo_2681" data-name="Grupo 2681">
        <path id="Trazado_5146" data-name="Trazado 5146" d="M574.813,108.433a11.18,11.18,0,0,1-2.14-.208,11.023,11.023,0,1,1,2.14.208Zm-.042-20.187a9.122,9.122,0,1,0,1.753.17A9.149,9.149,0,0,0,574.771,88.246Z" fill="#7f497e"/>
      </g>
    </g>
    <g id="Grupo_2685" data-name="Grupo 2685">
      <g id="Grupo_2683" data-name="Grupo 2683">
        <path id="Trazado_5147" data-name="Trazado 5147" d="M578.4,251.959a4.359,4.359,0,1,1-1.176-6.052A4.361,4.361,0,0,1,578.4,251.959Z" fill="#efca8e"/>
      </g>
      <g id="Grupo_2684" data-name="Grupo 2684">
        <path id="Trazado_5148" data-name="Trazado 5148" d="M574.773,260.608a11.087,11.087,0,1,1,9.211-4.885A11.032,11.032,0,0,1,574.773,260.608Zm.035-20.18a9.228,9.228,0,0,0-1.753.169,9.05,9.05,0,1,0,1.753-.169Z" fill="#efca8e"/>
      </g>
    </g>
    <g id="Grupo_2688" data-name="Grupo 2688">
      <g id="Grupo_2686" data-name="Grupo 2686">
        <circle id="Elipse_570" data-name="Elipse 570" cx="4.359" cy="4.359" r="4.359" transform="translate(593.693 169.071)" fill="#dca038"/>
      </g>
      <g id="Grupo_2687" data-name="Grupo 2687">
        <path id="Trazado_5149" data-name="Trazado 5149" d="M598.052,184.52a11.09,11.09,0,1,1,11.091-11.09A11.1,11.1,0,0,1,598.052,184.52Zm0-20.18a9.09,9.09,0,1,0,9.091,9.09A9.1,9.1,0,0,0,598.052,164.34Z" fill="#dca038"/>
      </g>
    </g>
    <g id="Grupo_2691" data-name="Grupo 2691">
      <g id="Grupo_2689" data-name="Grupo 2689">
        <path id="Trazado_5150" data-name="Trazado 5150" d="M578.4,94.9a4.359,4.359,0,1,1-6.052-1.176A4.361,4.361,0,0,1,578.4,94.9Z" fill="#9e8d85"/>
      </g>
      <g id="Grupo_2690" data-name="Grupo 2690">
        <path id="Trazado_5151" data-name="Trazado 5151" d="M574.813,108.433a11.18,11.18,0,0,1-2.14-.208,11.023,11.023,0,1,1,2.14.208Zm-.042-20.187a9.122,9.122,0,1,0,1.753.17A9.149,9.149,0,0,0,574.771,88.246Z" fill="#9e8d85"/>
      </g>
    </g>
    <g id="Grupo_2694" data-name="Grupo 2694">
      <g id="Grupo_2692" data-name="Grupo 2692">
        <path id="Trazado_5152" data-name="Trazado 5152" d="M345.441,251.788a4.359,4.359,0,1,0,1.185-6.05A4.359,4.359,0,0,0,345.441,251.788Z" fill="#79b2e2"/>
      </g>
      <g id="Grupo_2693" data-name="Grupo 2693">
        <path id="Trazado_5153" data-name="Trazado 5153" d="M349.075,260.443a11.086,11.086,0,1,1,6.172-1.884A11.09,11.09,0,0,1,349.075,260.443Zm-7.56-6.015a9.09,9.09,0,1,0,2.471-12.616A9.1,9.1,0,0,0,341.515,254.428Z" fill="#79b2e2"/>
      </g>
    </g>
    <g id="Grupo_2697" data-name="Grupo 2697">
      <g id="Grupo_2695" data-name="Grupo 2695">
        <path id="Trazado_5154" data-name="Trazado 5154" d="M321.548,173.224a4.359,4.359,0,1,0,4.365-4.352A4.359,4.359,0,0,0,321.548,173.224Z" fill="#aecc48"/>
      </g>
      <g id="Grupo_2696" data-name="Grupo 2696">
        <path id="Trazado_5155" data-name="Trazado 5155" d="M325.907,184.321h-.016a11.091,11.091,0,0,1,.015-22.181h.017a11.091,11.091,0,0,1-.016,22.181Zm0-20.181a9.091,9.091,0,0,0-.013,18.181h.014a9.091,9.091,0,0,0,.013-18.181Z" fill="#aecc48"/>
      </g>
    </g>
    <g id="Grupo_2700" data-name="Grupo 2700">
      <g id="Grupo_2698" data-name="Grupo 2698">
        <path id="Trazado_5156" data-name="Trazado 5156" d="M345.671,94.731a4.359,4.359,0,1,0,6.053-1.167A4.359,4.359,0,0,0,345.671,94.731Z" fill="#6ababe"/>
      </g>
      <g id="Grupo_2699" data-name="Grupo 2699">
        <path id="Trazado_5157" data-name="Trazado 5157" d="M349.258,108.268a11.124,11.124,0,1,1,2.124-.2A11.26,11.26,0,0,1,349.258,108.268Zm.042-20.187a9.172,9.172,0,0,0-1.74.167,9.047,9.047,0,1,0,1.74-.167Z" fill="#6ababe"/>
      </g>
    </g>
    <g id="Grupo_2701" data-name="Grupo 2701">
      <circle id="Elipse_571" data-name="Elipse 571" cx="37.3" cy="37.3" r="37.3" transform="translate(238.749 270.584) rotate(-21.911)" fill="#4c87cd"/>
    </g>
    <g id="Grupo_2702" data-name="Grupo 2702">
      <circle id="Elipse_572" data-name="Elipse 572" cx="37.3" cy="37.3" r="37.3" transform="translate(208.965 204.972) rotate(-81.723)" fill="#78933e"/>
    </g>
    <g id="Grupo_2703" data-name="Grupo 2703">
      <circle id="Elipse_573" data-name="Elipse 573" cx="37.3" cy="37.3" r="37.3" transform="translate(244.723 86.767) rotate(-81.231)" fill="#7fb2aa"/>
    </g>
    <g id="Grupo_2704" data-name="Grupo 2704">
      <circle id="Elipse_574" data-name="Elipse 574" cx="37.3" cy="37.3" r="37.3" transform="matrix(0.081, -0.997, 0.997, 0.081, 596.482, 89.741)" fill="#846e63"/>
    </g>
    <g id="Grupo_2705" data-name="Grupo 2705">
      <circle id="Elipse_575" data-name="Elipse 575" cx="37.3" cy="37.3" r="37.3" transform="translate(630.551 205.132) rotate(-81.94)" fill="#d39711"/>
    </g>
    <g id="Grupo_2706" data-name="Grupo 2706">
      <circle id="Elipse_576" data-name="Elipse 576" cx="37.3" cy="37.3" r="37.3" transform="matrix(0.993, -0.122, 0.122, 0.993, 595.12, 258.127)" fill="#e2ad42"/>
    </g>
    <g id="Grupo_2707" data-name="Grupo 2707">
      <text id="PRINCIPALES_OBJETIVOS_DE_LOS_EMABALAJES" data-name="PRINCIPALES
OBJETIVOS DE LOS
EMABALAJES" transform="translate(461.586 159.708)" fill="#2d3c56" font-size="16.941" font-family="Montserrat-Bold, Montserrat" font-weight="700"><tspan x="-59.464" y="0">PRINCIPALES</tspan><tspan x="-85.595" y="20.329">OBJETIVOS DE LOS</tspan><tspan x="-60.683" y="40.659">EMABALAJES</tspan></text>
    </g>
    <text id="_01" data-name="01" transform="translate(263.203 69.679)" fill="#fff" font-size="44.84" font-family="OpenSans-Bold, Open Sans" font-weight="700" letter-spacing="0.025em"><tspan x="0" y="0">01</tspan></text>
    <text id="_04" data-name="04" transform="translate(608.803 70.679)" fill="#fff" font-size="44.84" font-family="OpenSans-Bold, Open Sans" font-weight="700" letter-spacing="0.025em"><tspan x="0" y="0">04</tspan></text>
    <text id="_05" data-name="05" transform="translate(650.867 191.184)" fill="#fff" font-size="44.84" font-family="OpenSans-Bold, Open Sans" font-weight="700" letter-spacing="0.025em"><tspan x="0" y="0">05</tspan></text>
    <text id="_06" data-name="06" transform="translate(611.077 307.142)" fill="#fff" font-size="44.84" font-family="OpenSans-Bold, Open Sans" font-weight="700" letter-spacing="0.025em"><tspan x="0" y="0">06</tspan></text>
    <text id="_02" data-name="02" transform="translate(224.551 189.047)" fill="#fff" font-size="44.84" font-family="OpenSans-Bold, Open Sans" font-weight="700" letter-spacing="0.025em"><tspan x="0" y="0">02</tspan></text>
    <text id="_03" data-name="03" transform="translate(262.067 307.689)" fill="#fff" font-size="44.84" font-family="OpenSans-Bold, Open Sans" font-weight="700" letter-spacing="0.025em"><tspan x="0" y="0">03</tspan></text>
  </g>
</svg>
